<?xml version="1.0" encoding="utf-8"?>
<!-- Generator: Adobe Illustrator 18.1.1, SVG Export Plug-In . SVG Version: 6.00 Build 0)  -->
<svg version="1.1" id="Layer_1" xmlns="http://www.w3.org/2000/svg" xmlns:xlink="http://www.w3.org/1999/xlink" x="0px" y="0px"
	 viewBox="0 0 800 420" enable-background="new 0 0 800 420" xml:space="preserve">
<rect fill="#FCEE18" stroke="#000000" stroke-miterlimit="10" width="800" height="420"/>
<text transform="matrix(1 0 0 1 22.5293 37.0586)" font-family="'ArialMT'" font-size="18">Array</text>
<line fill="none" stroke="#000000" stroke-width="3" stroke-miterlimit="10" x1="45.6" y1="110.9" x2="525.8" y2="110.9"/>
<line fill="none" stroke="#000000" stroke-width="3" stroke-miterlimit="10" x1="525.8" y1="110.9" x2="525.8" y2="384.4"/>
<line fill="none" stroke="#000000" stroke-width="3" stroke-miterlimit="10" x1="525.8" y1="384.4" x2="45.6" y2="384.4"/>
<line fill="none" stroke="#000000" stroke-width="3" stroke-miterlimit="10" x1="45.6" y1="384.4" x2="45.6" y2="110.9"/>
<g>
	<line fill="none" stroke="#000000" stroke-width="3" stroke-miterlimit="10" x1="73.6" y1="140.3" x2="73.6" y2="196.9"/>
	<line fill="none" stroke="#000000" stroke-width="3" stroke-miterlimit="10" x1="73.6" y1="140.3" x2="120.6" y2="140.3"/>
	<line fill="#5B5C5C" stroke="#000000" stroke-width="3" stroke-miterlimit="10" x1="120.6" y1="140.3" x2="120.6" y2="196.9"/>
	<rect x="73.6" y="140.3" fill="#5B5C5C" width="47.1" height="56.6"/>
	<rect x="79.9" y="146.9" fill="#4470B7" width="34.6" height="50"/>
</g>
<g>
	<line fill="none" stroke="#000000" stroke-width="3" stroke-miterlimit="10" x1="138.8" y1="140.3" x2="138.8" y2="196.9"/>
	<line fill="none" stroke="#000000" stroke-width="3" stroke-miterlimit="10" x1="138.8" y1="140.3" x2="185.9" y2="140.3"/>
	<line fill="#5B5C5C" stroke="#000000" stroke-width="3" stroke-miterlimit="10" x1="185.9" y1="140.3" x2="185.9" y2="196.9"/>
	<rect x="138.8" y="140.3" fill="#5B5C5C" width="47.1" height="56.6"/>
	<rect x="145.2" y="146.9" fill="#4470B7" width="34.6" height="50"/>
</g>
<g>
	<line fill="none" stroke="#000000" stroke-width="3" stroke-miterlimit="10" x1="202.8" y1="140.3" x2="202.8" y2="196.9"/>
	<line fill="none" stroke="#000000" stroke-width="3" stroke-miterlimit="10" x1="202.8" y1="140.3" x2="249.9" y2="140.3"/>
	<line fill="#5B5C5C" stroke="#000000" stroke-width="3" stroke-miterlimit="10" x1="249.9" y1="140.3" x2="249.9" y2="196.9"/>
	<rect x="202.8" y="140.3" fill="#5B5C5C" width="47.1" height="56.6"/>
	<rect x="209.1" y="146.9" fill="#4470B7" width="34.6" height="50"/>
</g>
<g>
	<line fill="none" stroke="#000000" stroke-width="3" stroke-miterlimit="10" x1="265.8" y1="140.3" x2="265.8" y2="196.9"/>
	<line fill="none" stroke="#000000" stroke-width="3" stroke-miterlimit="10" x1="265.8" y1="140.3" x2="312.8" y2="140.3"/>
	<line fill="#5B5C5C" stroke="#000000" stroke-width="3" stroke-miterlimit="10" x1="312.8" y1="140.3" x2="312.8" y2="196.9"/>
	<rect x="265.8" y="140.3" fill="#5B5C5C" width="47.1" height="56.6"/>
	<rect x="272.1" y="146.9" fill="#4470B7" width="34.6" height="50"/>
</g>
<rect x="590.5" y="71.9" stroke="#000000" stroke-miterlimit="10" width="17.6" height="16.2"/>
<rect x="590.5" y="91.8" fill="#4A494A" stroke="#000000" stroke-miterlimit="10" width="17.6" height="16.2"/>
<rect x="590.5" y="110.9" fill="#1B75B2" stroke="#000000" stroke-miterlimit="10" width="17.6" height="16.2"/>
<text transform="matrix(1 0 0 1 613.3827 86.0882)" font-family="'ArialMT'" font-size="18">Array</text>
<text transform="matrix(1 0 0 1 613.383 107.2651)" font-family="'ArialMT'" font-size="18">Espaços</text>
<text transform="matrix(1 0 0 1 613.3829 127.0592)" font-family="'ArialMT'" font-size="18">Valor</text>
</svg>
