<?xml version="1.0" encoding="UTF-8"?>
<svg xmlns="http://www.w3.org/2000/svg" xmlns:xlink="http://www.w3.org/1999/xlink" viewBox="0 0 25 25" width="25px" height="25px">
<g id="surface20492048">
<path style=" stroke:none;fill-rule:nonzero;fill:rgb(100%,100%,100%);fill-opacity:1;" d="M 5.832031 3.332031 C 5.621094 3.332031 5.40625 3.414062 5.242188 3.578125 L 3.578125 5.246094 C 3.25 5.570312 3.25 6.097656 3.578125 6.421875 L 9.65625 12.5 L 3.578125 18.578125 C 3.25 18.902344 3.25 19.429688 3.578125 19.753906 L 5.242188 21.421875 C 5.570312 21.75 6.097656 21.75 6.421875 21.421875 L 12.5 15.34375 L 18.578125 21.421875 C 18.902344 21.75 19.429688 21.75 19.753906 21.421875 L 21.421875 19.753906 C 21.75 19.429688 21.75 18.902344 21.421875 18.578125 L 15.34375 12.5 L 21.421875 6.421875 C 21.75 6.097656 21.75 5.570312 21.421875 5.246094 L 19.753906 3.578125 C 19.429688 3.25 18.902344 3.25 18.578125 3.578125 L 12.5 9.65625 L 6.421875 3.578125 C 6.257812 3.414062 6.046875 3.332031 5.832031 3.332031 Z M 5.832031 3.332031 "/>
</g>
</svg>
