<?xml version="1.0" encoding="utf-8"?>
<!-- Generator: Adobe Illustrator 18.1.1, SVG Export Plug-In . SVG Version: 6.00 Build 0)  -->
<svg version="1.1" id="Layer_1" xmlns="http://www.w3.org/2000/svg" xmlns:xlink="http://www.w3.org/1999/xlink" x="0px" y="0px"
	 viewBox="0 0 800 420" enable-background="new 0 0 800 420" xml:space="preserve">
<rect fill="#FCEE18" width="800" height="420"/>
<line fill="none" stroke="#000000" stroke-width="3" stroke-miterlimit="10" x1="400" y1="108.7" x2="400" y2="179.3"/>
<line fill="none" stroke="#000000" stroke-width="3" stroke-miterlimit="10" x1="400" y1="210" x2="400" y2="217.4"/>
<line fill="none" stroke="#000000" stroke-width="3" stroke-miterlimit="10" x1="400" y1="243.2" x2="608.1" y2="243.2"/>
<line fill="none" stroke="#000000" stroke-width="3" stroke-miterlimit="10" x1="608.1" y1="243.2" x2="608.1" y2="318.2"/>
<line fill="none" stroke="#000000" stroke-width="3" stroke-miterlimit="10" x1="400" y1="243.2" x2="208.9" y2="243.2"/>
<line fill="none" stroke="#000000" stroke-width="3" stroke-miterlimit="10" x1="208.9" y1="243.2" x2="208.9" y2="310.1"/>
<line fill="none" stroke="#000000" stroke-width="3" stroke-miterlimit="10" x1="400" y1="128.5" x2="125.1" y2="128.5"/>
<line fill="none" stroke="#000000" stroke-width="3" stroke-miterlimit="10" x1="125.1" y1="128.5" x2="125.1" y2="166.8"/>
<line fill="none" stroke="#000000" stroke-width="3" stroke-miterlimit="10" x1="400" y1="128.5" x2="649.3" y2="128.5"/>
<line fill="none" stroke="#000000" stroke-width="3" stroke-miterlimit="10" x1="649.3" y1="128.5" x2="649.3" y2="166.8"/>
<text transform="matrix(1 0 0 1 369.6763 94.8823)" font-family="'ArialMT'" font-size="18">window</text>
<text transform="matrix(1 0 0 1 94.2061 184.6763)" font-family="'ArialMT'" font-size="18">location</text>
<text transform="matrix(1 0 0 1 361.6763 197.6468)" font-family="'ArialMT'" font-size="18">document</text>
<text transform="matrix(1 0 0 1 623.2354 190.0293)" font-family="'ArialMT'" font-size="18">history</text>
<text transform="matrix(1 0 0 1 382.853 235.676)" font-family="'ArialMT'" font-size="18">html</text>
<text transform="matrix(1 0 0 1 189.3237 325.7646)" font-family="'ArialMT'" font-size="18">head</text>
<text transform="matrix(1 0 0 1 589.5293 337.1475)" font-family="'ArialMT'" font-size="18">body</text>
<line fill="none" stroke="#000000" stroke-width="3" stroke-miterlimit="10" x1="242" y1="318.2" x2="265.5" y2="318.2"/>
<line fill="none" stroke="#000000" stroke-width="3" stroke-miterlimit="10" x1="264.5" y1="318.2" x2="264.5" y2="344"/>
<line fill="none" stroke="#000000" stroke-width="3" stroke-miterlimit="10" x1="178.7" y1="318.2" x2="153" y2="318.2"/>
<line fill="none" stroke="#000000" stroke-width="3" stroke-miterlimit="10" x1="154" y1="318.2" x2="154" y2="344"/>
<line fill="none" stroke="#000000" stroke-width="3" stroke-miterlimit="10" x1="634.6" y1="331.1" x2="662.6" y2="331.1"/>
<line fill="none" stroke="#000000" stroke-width="3" stroke-miterlimit="10" x1="661.6" y1="331.1" x2="661.6" y2="344"/>
<line fill="none" stroke="#000000" stroke-width="3" stroke-miterlimit="10" x1="583.9" y1="331.1" x2="561.1" y2="331.1"/>
<line fill="none" stroke="#000000" stroke-width="3" stroke-miterlimit="10" x1="562.1" y1="331.1" x2="562.1" y2="344"/>
<text transform="matrix(1 0 0 1 133.2939 363.4121)" font-family="'ArialMT'" font-size="18">meta</text>
<text transform="matrix(1 0 0 1 251.1763 363.9707)" font-family="'ArialMT'" font-size="18">title</text>
<text transform="matrix(1 0 0 1 550.3828 362.7354)" font-family="'ArialMT'" font-size="18">div</text>
<text transform="matrix(1 0 0 1 648.3232 363.8525)" font-family="'ArialMT'" font-size="18">h1...</text>
<text transform="matrix(1 0 0 1 34.147 49.353)" font-family="'ArialMT'" font-size="18">Document</text>
</svg>
