<?xml version="1.0" encoding="utf-8"?>
<!-- Generator: Adobe Illustrator 18.1.1, SVG Export Plug-In . SVG Version: 6.00 Build 0)  -->
<svg version="1.1" id="Layer_1" xmlns="http://www.w3.org/2000/svg" xmlns:xlink="http://www.w3.org/1999/xlink" x="0px" y="0px"
	 viewBox="0 0 800 420" enable-background="new 0 0 800 420" xml:space="preserve">
<rect fill="#FCEE18" width="800" height="420"/>
<line fill="none" stroke="#000000" stroke-width="3" stroke-miterlimit="10" x1="400" y1="178.7" x2="400" y2="249.3"/>
<line fill="none" stroke="#000000" stroke-width="3" stroke-miterlimit="10" x1="400" y1="248.5" x2="125.1" y2="248.5"/>
<line fill="none" stroke="#000000" stroke-width="3" stroke-miterlimit="10" x1="125.1" y1="248.5" x2="125.1" y2="286.8"/>
<line fill="none" stroke="#000000" stroke-width="3" stroke-miterlimit="10" x1="400" y1="248.5" x2="649.3" y2="248.5"/>
<line fill="none" stroke="#000000" stroke-width="3" stroke-miterlimit="10" x1="649.3" y1="247.5" x2="649.3" y2="285.8"/>
<text transform="matrix(1 0 0 1 378.6763 166.8823)" font-family="'ArialMT'" font-size="18">A &gt; B</text>
<text transform="matrix(1 0 0 1 56.2061 307.6763)" font-family="'ArialMT'" font-size="18">{bloco de código}</text>
<text transform="matrix(1 0 0 1 599.2354 308.0293)" font-family="'ArialMT'" font-size="18">“mensagem”</text>
<text transform="matrix(1 0 0 1 34.147 49.353)" font-family="'ArialMT'" font-size="18">If</text>
<path fill="none" stroke="#000000" stroke-width="3" stroke-miterlimit="10" d="M400,148c4.5-61.5,85.4,47.8,94.9,0"/>
<text transform="matrix(1 0 0 1 469.0586 139.353)" font-family="'ArialMT'" font-size="18">condição</text>
</svg>
