<?xml version="1.0" encoding="UTF-8"?>
<svg xmlns="http://www.w3.org/2000/svg" xmlns:xlink="http://www.w3.org/1999/xlink" viewBox="0 0 25 25" width="25px" height="25px">
<g id="surface20461876">
<path style=" stroke:none;fill-rule:nonzero;fill:rgb(100%,100%,100%);fill-opacity:1;" d="M 16.5 14.5 C 15.601562 14.5 15 15.257812 15 16.5 C 15 17.742188 15.445312 19.023438 16.5 19 C 17.609375 18.972656 18.011719 17.886719 18 16.5 C 17.992188 15.257812 17.394531 14.5 16.5 14.5 Z M 22.128906 8.535156 C 22.265625 7.863281 22.324219 5.484375 21.339844 3 C 21.339844 3 19.074219 3.246094 15.648438 5.597656 C 14.929688 5.398438 13.714844 5.300781 12.5 5.300781 C 11.285156 5.300781 10.070312 5.398438 9.347656 5.597656 C 5.925781 3.246094 3.660156 3 3.660156 3 C 2.671875 5.480469 2.722656 7.804688 2.867188 8.53125 C 1.707031 9.792969 1 11.304688 1 13.371094 C 1 22.351562 8.453125 22.496094 10.332031 22.496094 C 10.757812 22.496094 11.605469 22.496094 12.5 22.5 C 13.394531 22.496094 14.242188 22.496094 14.664062 22.496094 C 16.546875 22.496094 24 22.351562 24 13.371094 C 24 11.304688 23.289062 9.792969 22.128906 8.53125 Z M 12.570312 21.5 L 12.5 21.5 C 7.785156 21.5 4.078125 20.832031 4.078125 16.246094 C 4.078125 15.148438 4.464844 14.132812 5.386719 13.285156 C 6.921875 11.875 9.519531 12.621094 12.464844 12.621094 C 12.476562 12.621094 12.527344 12.621094 12.535156 12.621094 C 15.484375 12.621094 18.082031 11.878906 19.617188 13.285156 C 20.535156 14.132812 20.921875 15.148438 20.921875 16.246094 C 20.921875 20.828125 17.285156 21.5 12.570312 21.5 Z M 8.5 14.5 C 7.605469 14.5 7 15.507812 7 16.75 C 7 17.992188 7.605469 19 8.5 19 C 9.398438 19 10 17.992188 10 16.75 C 10 15.507812 9.398438 14.5 8.5 14.5 Z M 8.5 14.5 "/>
</g>
</svg>
